inDegrees=no
num_controls=7
num_derivatives=13
num_iterations=100
num_multipliers=7
num_parameters=0
num_slacks=7
num_states=26
objective=0.444957
objective_accelerations=0.057308
objective_balance=0.003255
objective_effort=0.022857
objective_height=0.356050
objective_ligament=0.005487
solver_duration=1475.131943
status=Solve_Succeeded
success=true
DataType=double
version=3
OpenSimVersion=4.5
endheader
time	/jointset/ground_pelvis/pelvis_tilt/value	/jointset/ground_pelvis/pelvis_tx/value	/jointset/ground_pelvis/pelvis_ty/value	/jointset/hip_l/hip_flexion_l/value	/jointset/hip_l/hip_adduction_l/value	/jointset/hip_l/hip_rotation_l/value	/jointset/back/lumbar_extension/value	/jointset/patellofemoral_l/patellar_flexion_l/value	/jointset/knee_l/knee_flexion_l/value	/jointset/knee_l/knee_adduction_l/value	/jointset/knee_l/knee_rotation_l/value	/jointset/ankle_l/ankle_angle_l/value	/jointset/subtalar_l/subtalar_angle_l/value	/jointset/ground_pelvis/pelvis_tilt/speed	/jointset/ground_pelvis/pelvis_tx/speed	/jointset/ground_pelvis/pelvis_ty/speed	/jointset/hip_l/hip_flexion_l/speed	/jointset/hip_l/hip_adduction_l/speed	/jointset/hip_l/hip_rotation_l/speed	/jointset/back/lumbar_extension/speed	/jointset/patellofemoral_l/patellar_flexion_l/speed	/jointset/knee_l/knee_flexion_l/speed	/jointset/knee_l/knee_adduction_l/speed	/jointset/knee_l/knee_rotation_l/speed	/jointset/ankle_l/ankle_angle_l/speed	/jointset/subtalar_l/subtalar_angle_l/speed	/forceset/tau_hip_flexion_l	/forceset/tau_hip_adduction_l	/forceset/tau_hip_rotation_l	/forceset/tau_knee_flexion_l	/forceset/tau_ankle_angle_l	/forceset/tau_subtalar_angle_l	/forceset/tau_lumbar_extension	lambda_cid13_p0	lambda_cid13_p1	lambda_cid13_p2	lambda_cid13_p3	lambda_cid13_p4	lambda_cid13_p5	lambda_cid14_p0	/jointset/ground_pelvis/pelvis_tilt/accel	/jointset/ground_pelvis/pelvis_tx/accel	/jointset/ground_pelvis/pelvis_ty/accel	/jointset/hip_l/hip_flexion_l/accel	/jointset/hip_l/hip_adduction_l/accel	/jointset/hip_l/hip_rotation_l/accel	/jointset/back/lumbar_extension/accel	/jointset/patellofemoral_l/patellar_flexion_l/accel	/jointset/knee_l/knee_flexion_l/accel	/jointset/knee_l/knee_adduction_l/accel	/jointset/knee_l/knee_rotation_l/accel	/jointset/ankle_l/ankle_angle_l/accel	/jointset/subtalar_l/subtalar_angle_l/accel	gamma_cid13_p0	gamma_cid13_p1	gamma_cid13_p2	gamma_cid13_p3	gamma_cid13_p4	gamma_cid13_p5	gamma_cid14_p0
1.5	-0.362373999496105	-0.01749879057858953	0.7622323042342791	1.095970672592297	-0.4360621559403324	-0.2084940316945482	-0.2248822199406276	0.811881287159945	0.8118812871596436	-0.1314734238532001	-0.1444139302575463	0.1409404966981215	-0.01345998369166171	0.663338426360022	0.2603231892362201	0.5317067488417861	-2.433329277516056	0.2113020445720937	-0.7199622202507759	0.3144782688000051	-2.033351159495049	-2.033351159495037	-0.1314168083898578	0.1396804183228596	-0.4307788175466298	0.02052350543573314	-0.172480125287333	0.03940417222481712	-0.008036286706554147	-0.202525456008518	0.03647398286352008	0.03534619555211341	0.1668051276594516	-20.48789661001091	-14.53718613717158	5.149843992273949	-6.417596647669031	-519.8161026714591	-54.2895094311109	-24.59373063356946	0.652603369837025	0.668290180826313	-0.5246940611691212	-1.240327502429072	0.7078540986797531	-0.1584003606648528	1.428133148561745	-1.322298826403085	-1.322298826403115	0.1196512395709089	0.2393880646693785	-0.5363701221001091	0.4964118777651293	4.939527354800505e-07	5.213725898389933e-07	-2.884631851541185e-06	-9.654541432270534e-08	7.144414403737835e-07	3.811087221899958e-08	4.596321087037622e-07
1.51	-0.3557080712298156	-0.01486232466548922	0.7675220889962562	1.071577038519053	-0.4339152289509653	-0.2157009132620223	-0.2216672371428044	0.7914841491680845	0.7914841491677777	-0.1327841688952841	-0.1430069708009073	0.1366063083647891	-0.01323158199453592	0.6697482313876384	0.266942773990328	0.5261382678256211	-2.445064282868043	0.2180591158491051	-0.7213100207568904	0.328490353581076	-2.045786305467759	-2.04578630546778	-0.1307329469557749	0.1416969303926222	-0.4359710166115718	0.02516784399530481	-0.1664297363858178	0.03826740848880379	-0.00770493085611545	-0.2000369476955711	0.03728874442548161	0.03468911831498742	0.16192537483523	-20.0199486513213	-14.34897799032991	5.137230023499879	-6.499737731762882	-515.9280678104677	-54.55842953980314	-25.51651607220544	0.6203320529405164	0.6547523166140666	-0.5896088484788133	-1.090079243057459	0.6559894687954093	-0.1070160433535515	1.383555565339521	-1.160678898998669	-1.160678899003559	0.04283966493440552	0.1803089684589953	-0.4974199777991167	0.4500181190786912	4.206730838430568e-07	1.130170547537782e-06	-1.844814442961407e-06	1.077644270511725e-07	5.947975661582053e-07	1.76845362568723e-07	4.084861826525613e-07
1.52	-0.3489810123165049	-0.01216047096606569	0.7727528522027437	1.047076055953998	-0.431701460083509	-0.2229180820641122	-0.2183129716126772	0.7709713484332401	0.7709713484329225	-0.1340880581091195	-0.141580340985493	0.1322228430049864	-0.01295642225700921	0.6755645557639155	0.273400746500865	0.5199024377439163	-2.454798975878992	0.2246704201894567	-0.7220196671737562	0.3423348152605386	-2.056483708092217	-2.05648370809227	-0.1300456427373928	0.1436144900755544	-0.4406342228408286	0.0298751135158969	-0.1603793474842662	0.03713064475279877	-0.00737357500576376	-0.1975484393826148	0.03810350598744407	0.03403204107787311	0.1570456220110414	-19.55499801049731	-14.16241484716659	5.127357611157219	-6.608895061795345	-512.1020474844851	-54.87314329886055	-26.43860768955493	0.5339072395691828	0.6359677321121058	-0.6581638742770639	-0.8402650342215837	0.6787007113478079	-0.03076954281511743	1.394608528240074	-0.9747501567526847	-0.9747501567525788	0.1203397964307723	0.2195975873032578	-0.4305715549631017	0.5089980699691993	3.985599504842517e-07	1.403086356051764e-06	-1.44796602373901e-06	1.921670500187394e-07	5.669949318319155e-07	2.725521869985891e-07	3.913318360930504e-07
1.53	-0.342198741069963	-0.009395122077422477	0.7779179751585157	1.022487865168016	-0.4294223715592177	-0.2301386936360063	-0.2148214179910153	0.7503600964498951	0.7503600964496947	-0.1353855095347538	-0.1401345831279953	0.1277950338973483	-0.01263414504054147	0.6807872423187684	0.2796136570963193	0.5130143036397766	-2.462471168518534	0.2311258896472405	-0.7220191559810548	0.3559202551263344	-2.065471060652177	-2.06547106065221	-0.1294163788099767	0.145514019905149	-0.4448648675630886	0.03458157710290695	-0.1547055526557797	0.03647792036530812	-0.006974479781220153	-0.1941126967886644	0.03732299382305909	0.03318731359020605	0.1523327299433344	-19.61606787613989	-13.79637109841597	5.082151709885008	-6.071140553064366	-508.31340888134	-54.95410026643128	-27.35983058590935	0.5011065017092535	0.6056718332228875	-0.7201808181173081	-0.6754592234425051	0.6258448751097818	0.02837626373108984	1.332163623922823	-0.8164677059617843	-0.8164677059590086	0.0385933455833692	0.1712729114203811	-0.4098653572112574	0.4516744589992571	4.308112427960214e-07	1.319127381056892e-06	-1.734272155708825e-06	1.491682534296022e-07	6.367736148879936e-07	3.225421163886072e-07	4.102935427434597e-07
1.54	-0.335367311530218	-0.006569300260832633	0.7830110082453191	0.9978339998867175	-0.427079353377923	-0.2373567171332898	-0.2111956795890595	0.7296678229608871	0.729667822960794	-0.1366757935902	-0.1386706015260526	0.1233268074572175	-0.01226476239701706	0.6853962144042548	0.2854953320901926	0.5054844639502458	-2.467933874942962	0.2374563515896654	-0.7215020522516187	0.3691717713190717	-2.072688009225904	-2.07268800922592	-0.128612168695104	0.1472592389600535	-0.4487176893395013	0.03929619892721126	-0.1490317578272599	0.03582519597782802	-0.006575384556833134	-0.190676954194697	0.03654248165867745	0.03234258610255563	0.1476198378756551	-19.67942669523428	-13.43465777169187	5.043041574302667	-5.574215876662278	-504.5754908318886	-55.08723798015507	-28.28070120533267	0.4111643456959114	0.5697206117958759	-0.7865049913553274	-0.3983677911989845	0.6536992082760514	0.07254896453185274	1.327823793628419	-0.6206693595063459	-0.6206693595064613	0.1553290339221003	0.1887354323652091	-0.3550069657936722	0.5106297174280301	4.428716652096436e-07	1.423421322618887e-06	-1.754111488764555e-06	1.622973790158519e-07	6.707271930200458e-07	3.807162025816267e-07	4.209599590154247e-07
1.55	-0.3284928466298239	-0.003686122498924056	0.7880256894838044	0.9731360167832446	-0.424673859934365	-0.2445679730440576	-0.2074392566598205	0.7089122652664965	0.7089122652664436	-0.1379569957662181	-0.1371907729865855	0.1188222947055246	-0.01184820620384468	0.6893821691661222	0.2911033163459738	0.4973565155316211	-2.471320252072892	0.2436041520928249	-0.7206380499075183	0.3820573500680947	-2.078120687224515	-2.078120687224627	-0.1276408254224616	0.1486974148529408	-0.4520834938451026	0.04401865881950687	-0.1427349567867819	0.03413837749412758	-0.006298845371154502	-0.1889417859581731	0.03809659474831132	0.03138580675606564	0.1425156636529513	-19.01693118204686	-13.14797024295333	5.012005708123994	-5.736328633143581	-501.2011419940692	-55.31109879944855	-29.20235502327042	0.3751199767865315	0.5508584039433471	-0.8400981322863457	-0.2573915679302981	0.5895149603293868	0.1103760457496828	1.260605246451411	-0.4592251929209255	-0.4592251929352965	0.06641786748911803	0.1196956674021116	-0.3120951383902547	0.4534420705663919	4.316686940449666e-07	1.744615363692044e-06	-1.466934727419292e-06	2.400956323259132e-07	6.634040198265922e-07	4.483198607433214e-07	4.220687581122263e-07
1.56	-0.3215819603947387	-0.0007479606801628946	0.7929562595650693	0.9484144461296673	-0.4222080495879746	-0.2517671788961062	-0.2035556418769081	0.6881114491575492	0.6881114491575252	-0.1392288083308188	-0.1356968952882388	0.1142871783196867	-0.01138434782266202	0.6926804813421628	0.2964921434607092	0.4886622325061903	-2.472651384964434	0.2495197321557226	-0.7190920405073942	0.394610142053606	-2.081739692138427	-2.081739692138634	-0.126734246407665	0.1500690707318906	-0.4548384161685798	0.04875663652924517	-0.1364381557462877	0.03245155901042765	-0.006022306185603097	-0.1872066177216368	0.03965070783794546	0.03042902740957817	0.1374114894302636	-18.35460674895408	-12.86405927416378	4.984619189942799	-5.93611238293824	-497.8442011326815	-55.58052467264289	-30.124352131947	0.2736358285305698	0.5258891835866787	-0.8997719127165599	0.01268105647860935	0.6072551202236897	0.2089503757366607	1.261266440926087	-0.2579347425666368	-0.2579347425665854	0.142376182352941	0.1754314295777072	-0.232830529368868	0.513733280916548	4.055314279636592e-07	1.892892042780233e-06	-1.255876873548882e-06	2.904434754847027e-07	6.272737752870883e-07	4.870785436922078e-07	4.101793294153979e-07
1.57	-0.3146416038786125	0.002242642119313034	0.7977970463680539	0.9236905314362096	-0.4196841087805063	-0.2589474909636041	-0.1995482347659734	0.6672838112950695	0.6672838112948328	-0.1404914213923979	-0.1341894492083938	0.1097273502882768	-0.01087297328805293	0.6952851763771108	0.3015557557652173	0.4794052015432281	-2.471756610019783	0.2552249222552041	-0.7168525584804022	0.4067835322964916	-2.083478542162259	-2.083478542162579	-0.1258016159357495	0.1514136164419136	-0.4570628425481328	0.05349574679146183	-0.1308928381222114	0.03157578254156277	-0.00563335728485197	-0.1838155273893798	0.03861175446246789	0.02934759506450384	0.1327414227952455	-18.5404705465309	-12.37928786526645	4.927251331621154	-5.220382357158265	-494.563790816129	-55.6033675880623	-31.03126675372954	0.2380344491356873	0.4857612955154175	-0.9520549502059144	0.18411794562581	0.5455328428786461	0.2494541572599344	1.182213140452866	-0.08553257148419222	-0.08553257150120676	0.06696418586827732	0.1127304356067036	-0.2075391202813829	0.4504618915464066	3.607262932365638e-07	1.825022019387215e-06	-1.139967654022036e-06	3.064783059544027e-07	5.551346915650221e-07	4.897810076250839e-07	3.820421159765319e-07
1.58	-0.3076783707905037	0.005281713850160501	0.8025425856089849	0.8989868129386357	-0.4171044396944273	-0.266101806802617	-0.1954217261877124	0.6464480504445195	0.6464480504440577	-0.1417450566080319	-0.1326688048126452	0.1051472199074655	-0.01031491525228713	0.6972557957384059	0.3061859297350171	0.4696127200954819	-2.46861214578844	0.2606653878774133	-0.7138927948102298	0.4184304355187014	-2.083364289753799	-2.083364289754233	-0.1249386772135347	0.1527087339076184	-0.4588988860490004	0.05809333676056626	-0.1253475204981049	0.03070000607270564	-0.005244408384255108	-0.1804244370571037	0.03757280108699347	0.02826616271944244	0.1280713561602526	-18.73498040930641	-11.89773664708363	4.875805283428422	-4.516891144240324	-491.4173321123082	-55.68199064298102	-31.91551825434636	0.1468206937999591	0.4392015166450207	-1.006862009673335	0.4626189138168176	0.5543102247692195	0.3530067043726944	1.15596903679093	0.1126857438917326	0.1126857438917221	0.1284378324128106	0.1655457807140699	-0.1551539536318123	0.4854292222940814	3.182661743066077e-07	1.921330488722283e-06	-9.209122270899375e-07	3.519180151490384e-07	4.923997345790002e-07	4.982382000723852e-07	3.613696068205776e-07
1.59	-0.3006987821437371	0.00836507788181799	0.8071876382711968	0.8743257628366835	-0.4144716783223928	-0.2732244667769601	-0.1911815019490599	0.6256230547285248	0.6256230547284252	-0.142989427585098	-0.1311366597667993	0.1005511278411281	-0.009711275125832855	0.6985323152261813	0.3104288623521768	0.4593190248913612	-2.463216093770175	0.2658386606613778	-0.7105372566710251	0.4295204187289899	-2.081300607904073	-2.081300607903978	-0.1239302951438981	0.1537002184701211	-0.4602141189232452	0.0626313583284826	-0.1190027414175896	0.02856016125644532	-0.005042094808884103	-0.1788302841140193	0.03907583734631451	0.02718182007167143	0.1228619298728537	-18.12684343348168	-11.55029128126875	4.839835660455629	-4.53691189786245	-488.5116878027241	-55.97573907577522	-32.77158027159598	0.09858617109338208	0.4082346229872399	-1.05235886489861	0.6353291127087	0.4913277922261416	0.3424198758029533	1.07141394073406	0.3032773275439103	0.3032773276231759	0.08821444191966811	0.06279908160716141	-0.1038127949043385	0.437142319868648	2.78988576815626e-07	2.24045262675974e-06	-5.61872661536432e-07	4.372643454703702e-07	4.424275210204664e-07	5.145053812178343e-07	3.508277677628602e-07
